<svg width="360" height="100" viewBox="0 0 360 100" fill="none" xmlns="http://www.w3.org/2000/svg">
<g clip-path="url(#clip0_103_2774)">
<path d="M36 43V30L48 28V41" stroke="white" stroke-linecap="round" stroke-linejoin="round"/>
<path d="M33 46C34.6569 46 36 44.6569 36 43C36 41.3431 34.6569 40 33 40C31.3431 40 30 41.3431 30 43C30 44.6569 31.3431 46 33 46Z" stroke="white" stroke-linecap="round" stroke-linejoin="round"/>
<path d="M45 44C46.6569 44 48 42.6569 48 41C48 39.3431 46.6569 38 45 38C43.3431 38 42 39.3431 42 41C42 42.6569 43.3431 44 45 44Z" stroke="white" stroke-linecap="round" stroke-linejoin="round"/>
<path d="M33.0293 60.2266C33.9089 60.2266 34.6699 60.3177 35.3125 60.5C35.9551 60.6823 36.4495 60.9489 36.7959 61.2998C37.1468 61.6462 37.3223 62.0586 37.3223 62.5371C37.3223 63.0111 37.1468 63.4189 36.7959 63.7607C36.4495 64.1025 35.9551 64.3623 35.3125 64.54C34.6699 64.7178 33.9089 64.8066 33.0293 64.8066C32.1497 64.8066 31.3864 64.7178 30.7393 64.54C30.0921 64.3623 29.5931 64.1025 29.2422 63.7607C28.8958 63.4189 28.7227 63.0111 28.7227 62.5371C28.7227 62.0586 28.8958 61.6462 29.2422 61.2998C29.5931 60.9489 30.0921 60.6823 30.7393 60.5C31.3864 60.3177 32.1497 60.2266 33.0293 60.2266ZM27.4922 65.8594H38.5664V66.748H27.4922V65.8594ZM28.8457 67.9512H37.2129V71.9434H28.8457V67.9512ZM29.8301 62.5371C29.8301 62.8288 29.9577 63.0817 30.2129 63.2959C30.4727 63.5055 30.8441 63.6696 31.3271 63.7881C31.8102 63.902 32.3776 63.959 33.0293 63.959C33.6764 63.959 34.2393 63.902 34.7178 63.7881C35.2008 63.6696 35.5723 63.5055 35.832 63.2959C36.0964 63.0817 36.2285 62.8288 36.2285 62.5371C36.2285 62.2363 36.0964 61.9788 35.832 61.7646C35.5723 61.5459 35.2008 61.3796 34.7178 61.2656C34.2393 61.1471 33.6764 61.0879 33.0293 61.0879C32.3776 61.0879 31.8102 61.1471 31.3271 61.2656C30.8441 61.3796 30.4727 61.5459 30.2129 61.7646C29.9577 61.9788 29.8301 62.2363 29.8301 62.5371ZM36.1602 71.0684V68.8125H29.9121V71.0684H36.1602ZM42.5898 60.6914C43.2004 60.6914 43.7473 60.8122 44.2304 61.0537C44.7135 61.2952 45.0917 61.6325 45.3652 62.0654C45.6432 62.4984 45.7844 62.9928 45.789 63.5488C45.7844 64.1094 45.6454 64.6084 45.372 65.0459C45.0986 65.4834 44.718 65.8252 44.2304 66.0713C43.7473 66.3128 43.2004 66.4336 42.5898 66.4336C41.9791 66.4336 41.4322 66.3128 40.9491 66.0713C40.4661 65.8252 40.0878 65.4834 39.8144 65.0459C39.5409 64.6084 39.4042 64.1094 39.4042 63.5488C39.4042 62.9928 39.5409 62.4984 39.8144 62.0654C40.0878 61.6325 40.4661 61.2952 40.9491 61.0537C41.4368 60.8122 41.9836 60.6914 42.5898 60.6914ZM40.457 63.5488C40.457 63.9316 40.5481 64.2734 40.7304 64.5742C40.9127 64.8704 41.1656 65.1006 41.4892 65.2646C41.8173 65.4287 42.1842 65.5085 42.5898 65.5039C42.9999 65.5085 43.3668 65.4287 43.6904 65.2646C44.0185 65.1006 44.2737 64.8704 44.456 64.5742C44.6428 64.2734 44.7362 63.9316 44.7362 63.5488C44.7362 63.1751 44.6428 62.8424 44.456 62.5508C44.2737 62.2546 44.0185 62.0244 43.6904 61.8604C43.3668 61.6917 42.9999 61.6074 42.5898 61.6074C42.1842 61.6074 41.8173 61.6917 41.4892 61.8604C41.1656 62.0244 40.9127 62.2546 40.7304 62.5508C40.5481 62.8424 40.457 63.1751 40.457 63.5488ZM40.7167 67.7461H48.6737V72.1348H47.6073V68.6211H40.7167V67.7461ZM47.6073 59.9531H48.6737V63.0977H50.5058V64H48.6737V67.1172H47.6073V59.9531Z" fill="white"/>
</g>
<g clip-path="url(#clip1_103_2774)">
<path d="M139 27H127C125.895 27 125 27.8954 125 29V45C125 46.1046 125.895 47 127 47H139C140.105 47 141 46.1046 141 45V29C141 27.8954 140.105 27 139 27Z" stroke="white" stroke-linecap="round" stroke-linejoin="round"/>
<path d="M133 43C135.209 43 137 41.2091 137 39C137 36.7909 135.209 35 133 35C130.791 35 129 36.7909 129 39C129 41.2091 130.791 43 133 43Z" stroke="white" stroke-linecap="round" stroke-linejoin="round"/>
<path d="M133 31H133.01" stroke="white" stroke-linecap="round" stroke-linejoin="round"/>
<path d="M138.566 66.8438H133.549V68.1836H137.213V71.9434H128.846V68.1836H132.496V66.8438H127.492V65.9688H138.566V66.8438ZM128.135 64.4375C128.91 64.3691 129.618 64.2256 130.261 64.0068C130.903 63.7835 131.421 63.4964 131.812 63.1455C132.204 62.7946 132.414 62.4004 132.441 61.9629H128.641V61.1016H132.496V59.8848H133.549V61.1016H137.445V61.9629H133.617C133.64 62.4004 133.847 62.7946 134.239 63.1455C134.631 63.4964 135.148 63.7835 135.791 64.0068C136.434 64.2256 137.14 64.3691 137.91 64.4375L137.596 65.2441C136.538 65.1348 135.602 64.9001 134.786 64.54C133.97 64.18 133.385 63.7083 133.029 63.125C132.669 63.7083 132.081 64.18 131.266 64.54C130.45 64.9001 129.516 65.1348 128.463 65.2441L128.135 64.4375ZM136.16 71.0684V69.0449H129.912V71.0684H136.16Z" fill="white"/>
</g>
<g clip-path="url(#clip2_103_2774)">
<path d="M234.82 27H219.18C217.976 27 217 27.976 217 29.18V44.82C217 46.024 217.976 47 219.18 47H234.82C236.024 47 237 46.024 237 44.82V29.18C237 27.976 236.024 27 234.82 27Z" stroke="white" stroke-linecap="round" stroke-linejoin="round"/>
<path d="M222 27V47" stroke="white" stroke-linecap="round" stroke-linejoin="round"/>
<path d="M232 27V47" stroke="white" stroke-linecap="round" stroke-linejoin="round"/>
<path d="M217 37H237" stroke="white" stroke-linecap="round" stroke-linejoin="round"/>
<path d="M217 32H222" stroke="white" stroke-linecap="round" stroke-linejoin="round"/>
<path d="M217 42H222" stroke="white" stroke-linecap="round" stroke-linejoin="round"/>
<path d="M232 42H237" stroke="white" stroke-linecap="round" stroke-linejoin="round"/>
<path d="M232 32H237" stroke="white" stroke-linecap="round" stroke-linejoin="round"/>
<path d="M231.158 61.3887C231.158 62.0404 231.14 62.6442 231.104 63.2002C231.072 63.7516 230.987 64.3783 230.851 65.0801H232.621V65.9688H221.492V65.0801H229.771C229.898 64.4421 229.982 63.861 230.023 63.3369C230.069 62.8083 230.092 62.2773 230.092 61.7441V61.4297H222.9V60.5547H231.158V61.3887ZM222.668 67.7871H231.254V72.1484H230.174V68.6484H222.668V67.7871Z" fill="white"/>
</g>
<g clip-path="url(#clip3_103_2774)">
<path d="M321 30V44" stroke="white" stroke-linecap="round" stroke-linejoin="round"/>
<path d="M314 37H328" stroke="white" stroke-linecap="round" stroke-linejoin="round"/>
<path d="M318.076 62.4688C318.076 63.166 318.067 63.7744 318.049 64.2939C318.035 64.8135 317.996 65.4196 317.933 66.1123C317.869 66.8005 317.766 67.5547 317.625 68.375L316.531 68.2656C316.682 67.4954 316.793 66.7708 316.866 66.0918C316.939 65.4082 316.982 64.8066 316.996 64.2871C317.014 63.763 317.023 63.1569 317.023 62.4688V62.1406H309.695V61.252H318.076V62.4688ZM308.492 69.4277H319.566V70.3164H308.492V69.4277ZM327.244 60.7461C327.873 60.7507 328.433 60.8737 328.926 61.1152C329.422 61.3522 329.81 61.6872 330.088 62.1201C330.37 62.5531 330.512 63.0475 330.512 63.6035C330.512 64.1048 330.395 64.5583 330.163 64.9639C329.935 65.3649 329.614 65.6908 329.199 65.9414C328.789 66.1921 328.315 66.3493 327.777 66.4131V68.4844C329.144 68.416 330.338 68.3021 331.359 68.1426L331.441 68.9355C330.584 69.0951 329.696 69.2135 328.775 69.291C327.855 69.3685 327.002 69.4163 326.219 69.4346C325.435 69.4528 324.523 69.4642 323.484 69.4688L323.334 68.5664C324.765 68.5664 325.886 68.5527 326.697 68.5254V66.4131C326.155 66.3493 325.676 66.1921 325.262 65.9414C324.851 65.6862 324.532 65.3581 324.305 64.957C324.077 64.556 323.963 64.1048 323.963 63.6035C323.963 63.0475 324.102 62.5553 324.38 62.127C324.658 61.694 325.045 61.3568 325.542 61.1152C326.043 60.8737 326.611 60.7507 327.244 60.7461ZM325.015 63.6035C325.015 63.9727 325.109 64.3031 325.296 64.5947C325.487 64.8864 325.751 65.1143 326.089 65.2783C326.431 65.4378 326.816 65.5176 327.244 65.5176C327.668 65.5176 328.048 65.4378 328.386 65.2783C328.723 65.1143 328.985 64.8864 329.172 64.5947C329.363 64.3031 329.459 63.9727 329.459 63.6035C329.459 63.2298 329.363 62.8971 329.172 62.6055C328.985 62.3138 328.723 62.0882 328.386 61.9287C328.048 61.7692 327.668 61.6895 327.244 61.6895C326.816 61.6895 326.431 61.7692 326.089 61.9287C325.751 62.0882 325.487 62.3138 325.296 62.6055C325.109 62.8971 325.015 63.2298 325.015 63.6035ZM332.166 59.9531H333.232V72.1348H332.166V59.9531Z" fill="white"/>
</g>
<path d="M86 38V59.5" stroke="#CFCFCF" stroke-width="0.5" stroke-linecap="round"/>
<path d="M180 38V59.5" stroke="#CFCFCF" stroke-width="0.5" stroke-linecap="round"/>
<path d="M274 38V59.5" stroke="#CFCFCF" stroke-width="0.5" stroke-linecap="round"/>
<defs>
<clipPath id="clip0_103_2774">
<rect x="4" y="12" width="70" height="76" rx="4" fill="white"/>
</clipPath>
<clipPath id="clip1_103_2774">
<rect x="98" y="12" width="70" height="76" rx="4" fill="white"/>
</clipPath>
<clipPath id="clip2_103_2774">
<rect x="192" y="12" width="70" height="76" rx="4" fill="white"/>
</clipPath>
<clipPath id="clip3_103_2774">
<rect x="286" y="12" width="70" height="76" rx="4" fill="white"/>
</clipPath>
</defs>
</svg>
