<svg width="129" height="43" viewBox="0 0 129 43" fill="none" xmlns="http://www.w3.org/2000/svg">
<path d="M1.82577 36.445C4.32939 38.4479 8.21 40.7638 13.1547 40.8263C16.159 40.8263 18.6626 39.9501 20.7907 38.3853C22.8562 36.8206 24.2958 34.7551 24.2958 32.1889C24.2958 29.6226 22.8562 27.2442 20.8533 25.9298C18.7252 24.7406 16.3468 23.8643 13.405 23.4262H13.2798C10.4633 22.988 8.39778 22.237 7.02078 21.2981C5.83156 20.3592 5.26825 19.483 5.26825 18.2312C5.26825 16.9793 5.95675 15.7275 7.20856 14.7261C8.52296 13.6621 10.5259 12.9736 13.0295 12.9736C16.0338 12.9736 18.2871 14.5383 20.5403 16.0405C21.2288 16.4786 22.1677 16.2909 22.6058 15.6024C23.044 14.9139 22.8562 13.975 22.1677 13.4743C19.7893 11.9721 16.9727 10.157 13.0295 10.157C9.89995 10.157 7.33374 10.9707 5.51861 12.2225C3.5783 13.6621 2.20131 15.7901 2.20131 18.2312C2.20131 20.6096 3.5783 22.6125 5.51861 23.7391C7.27115 24.9909 9.71218 25.6168 12.4662 26.1176L12.5913 26.1802C15.5957 26.6809 17.7864 27.432 19.1008 28.4334C20.6655 29.7478 21.2288 30.7493 21.2914 32.1889C21.2914 33.5658 20.4777 34.9428 18.9756 35.9443C17.5986 37.0709 15.5331 37.822 13.1547 37.822C9.27404 37.822 5.89415 35.8191 3.76608 34.2543C3.07758 33.691 2.13872 33.8162 1.638 34.4421C1.13727 35.068 1.19986 35.8817 1.82577 36.445Z" fill="white"/>
<path d="M41.4244 39.3242C41.4244 40.1379 42.1129 40.8264 42.9266 40.8264C43.8028 40.8264 44.4913 40.1379 44.4913 39.3242V25.9298C44.4913 25.0536 43.8028 24.4277 42.9266 24.4277C42.1129 24.4277 41.4244 25.0536 41.4244 25.9298V39.3242Z" fill="white"/>
<path d="M84.2196 39.3242C84.2196 40.2005 84.9081 40.8264 85.7218 40.8264C86.5355 40.8264 87.224 40.2005 87.224 39.3242V22.6751C87.224 15.8528 81.6534 10.2196 74.7684 10.2196C70.9504 10.2196 67.5079 11.9721 65.2547 14.6635V11.7218C65.2547 10.9081 64.6288 10.2196 63.8151 10.2196C62.9388 10.2196 62.3129 10.9081 62.3129 11.7218V22.1744V22.6751V39.3242V39.6998C62.3129 39.6998 62.3755 39.7623 62.3755 39.8249C62.3755 39.8875 62.3755 39.9501 62.4381 40.0127C62.6259 40.3882 63.0014 40.7012 63.4396 40.8264H63.8151C64.2532 40.8264 64.6914 40.6386 64.9417 40.2631C65.1295 40.0753 65.1921 39.8249 65.2547 39.5746V39.3242V22.6751C65.3799 17.4801 69.5734 13.224 74.7684 13.224C80.0261 13.224 84.2196 17.4801 84.2196 22.6751V39.3242Z" fill="white"/>
<path d="M116.787 40.8264C120.417 40.8264 123.86 39.5746 126.426 37.5717C127.177 37.0084 127.302 36.0695 126.739 35.381C126.238 34.8177 125.362 34.6299 124.674 35.1306C122.483 36.8206 119.729 37.822 116.787 37.822C109.652 37.822 104.019 32.3141 104.019 25.4291C104.019 18.6693 109.652 13.0988 116.787 13.0988C119.729 13.0988 122.483 14.1002 124.674 15.8528C125.362 16.3535 126.238 16.1657 126.739 15.6024C127.302 14.9139 127.177 13.975 126.551 13.5369C123.86 11.4088 120.417 10.157 116.787 10.157C108.025 10.157 101.014 16.9168 101.014 25.4291C101.014 34.0666 108.025 40.8264 116.787 40.8264Z" fill="white"/>
<path fill-rule="evenodd" clip-rule="evenodd" d="M0.98162 37.4396L0.953469 37.4142C-0.17333 36.4001 -0.32293 34.8059 0.619778 33.6275C1.57149 32.4379 3.31971 32.231 4.56155 33.2207C6.62462 34.7341 9.71239 36.518 13.1547 36.518C15.2722 36.518 17.0351 35.8471 18.1499 34.9351L18.1992 34.8947L18.2523 34.8593C19.4755 34.0438 19.9768 33.0464 19.9873 32.2155C19.9609 31.6859 19.8494 31.2949 19.6309 30.9175C19.3961 30.512 18.9969 30.052 18.2868 29.4527C17.2273 28.6568 15.3038 27.9542 12.377 27.4664L12.1836 27.4342L12.0488 27.3668C9.38229 26.8743 6.77355 26.2174 4.8107 24.8357C2.56026 23.507 0.897352 21.122 0.897352 18.2312C0.897352 15.2726 2.56398 12.791 4.74165 11.1753L4.75976 11.1618L4.77831 11.149C6.84512 9.72365 9.68007 8.85303 13.0295 8.85303C17.2979 8.85303 20.3679 10.7938 22.7058 12.2718C22.7589 12.3054 22.8117 12.3387 22.864 12.3718L22.9001 12.3946L22.9347 12.4197C24.1536 13.3062 24.5312 15.0055 23.7059 16.3024C22.8638 17.6259 21.1086 17.9477 19.8403 17.1406L19.8286 17.1331L19.7418 17.0753C17.4566 15.5517 15.5457 14.2775 13.0295 14.2775C10.7511 14.2775 9.05995 14.905 8.02902 15.7396L8.02609 15.742L8.02315 15.7443C6.99004 16.5708 6.57223 17.4786 6.57223 18.2312C6.57223 18.6425 6.65967 18.9436 6.82296 19.2216C6.99543 19.5153 7.2885 19.8435 7.79268 20.246C8.9399 21.0164 10.7551 21.7037 13.3818 22.1222H13.5016L13.5971 22.1364C16.6992 22.5984 19.2277 23.5276 21.4894 24.7915L21.5299 24.8142L21.5687 24.8396C23.9063 26.3736 25.5998 29.1456 25.5998 32.1889C25.5998 35.3028 23.8388 37.7121 21.5781 39.4247L21.5707 39.4303L21.5632 39.4359C19.21 41.1662 16.4354 42.1303 13.1547 42.1303H13.1464L13.1382 42.1302C7.78604 42.0625 3.6291 39.5576 1.0112 37.4632L0.98162 37.4396ZM13.2798 23.4262C10.4633 22.988 8.39778 22.237 7.02078 21.2981C5.83156 20.3592 5.26825 19.483 5.26825 18.2312C5.26825 16.9793 5.95675 15.7275 7.20856 14.7261C8.52296 13.6621 10.5259 12.9736 13.0295 12.9736C15.9455 12.9736 18.1539 14.4477 20.3416 15.9079C20.4078 15.9521 20.4741 15.9963 20.5403 16.0405C21.2288 16.4786 22.1677 16.2909 22.6058 15.6024C23.044 14.9139 22.8562 13.975 22.1677 13.4743C22.1342 13.4531 22.1005 13.4319 22.0668 13.4106C19.7096 11.9213 16.9171 10.157 13.0295 10.157C9.89995 10.157 7.33374 10.9707 5.51861 12.2225C3.5783 13.6621 2.20131 15.7901 2.20131 18.2312C2.20131 20.6096 3.5783 22.6125 5.51861 23.7391C7.27115 24.9909 9.71218 25.6168 12.4662 26.1176L12.5913 26.1802C15.5957 26.6809 17.7864 27.432 19.1008 28.4334C20.6655 29.7478 21.2288 30.7493 21.2914 32.1889C21.2914 33.5658 20.4777 34.9428 18.9756 35.9443C17.5986 37.0709 15.5331 37.822 13.1547 37.822C9.27404 37.822 5.89415 35.8191 3.76608 34.2543C3.07758 33.691 2.13872 33.8162 1.638 34.4421C1.13727 35.068 1.19986 35.8817 1.82577 36.445C4.32939 38.4479 8.21 40.7638 13.1547 40.8263C16.159 40.8263 18.6626 39.9501 20.7907 38.3853C22.8562 36.8206 24.2958 34.7551 24.2958 32.1889C24.2958 29.6226 22.8562 27.2442 20.8533 25.9298C18.7252 24.7406 16.3468 23.8643 13.405 23.4262H13.2798ZM42.9266 42.1304C41.3927 42.1304 40.1204 40.858 40.1204 39.3242V25.9298C40.1204 24.298 41.4286 23.1237 42.9266 23.1237C44.4518 23.1237 45.7953 24.2642 45.7953 25.9298V39.3242C45.7953 40.8924 44.4881 42.1304 42.9266 42.1304ZM62.3129 39.6998V11.7218C62.3129 10.9081 62.9388 10.2196 63.8151 10.2196C64.6288 10.2196 65.2547 10.9081 65.2547 11.7218V14.6635C65.6536 14.1871 66.0898 13.7401 66.5587 13.327C68.7386 11.4066 71.6263 10.2196 74.7684 10.2196C81.6534 10.2196 87.224 15.8528 87.224 22.6751V39.3242C87.224 40.2005 86.5355 40.8264 85.7218 40.8264C84.9081 40.8264 84.2196 40.2005 84.2196 39.3242V22.6751C84.2196 17.4801 80.0261 13.224 74.7684 13.224C69.5734 13.224 65.3799 17.4801 65.2547 22.6751V39.5746C65.1921 39.8249 65.1295 40.0753 64.9417 40.2631C64.6914 40.6386 64.2532 40.8264 63.8151 40.8264H63.4396C63.0014 40.7012 62.6259 40.3882 62.4381 40.0127C62.3755 39.9501 62.3755 39.8875 62.3755 39.8249C62.3755 39.7623 62.3129 39.6998 62.3129 39.6998ZM61.1704 40.4013L61.009 40.2399V11.7218C61.009 10.2238 62.1833 8.91565 63.8151 8.91565C65.3937 8.91565 66.521 10.2173 66.5577 11.6497C68.8423 9.94295 71.6943 8.91565 74.7685 8.91565C82.3778 8.91565 88.5279 15.1369 88.5279 22.6751V39.3242C88.5279 40.956 87.2197 42.1304 85.7218 42.1304C84.2239 42.1304 82.9157 40.956 82.9157 39.3242V22.6751C82.9157 18.1946 79.3003 14.5279 74.7685 14.5279C70.3155 14.5279 66.6753 18.1816 66.5587 22.6913V39.7351L66.5197 39.8908C66.5167 39.9029 66.5134 39.9167 66.5097 39.9321C66.4594 40.141 66.337 40.6493 65.9587 41.0834C65.4156 41.8208 64.567 42.1304 63.8151 42.1304H63.2569L63.0813 42.0802C62.3533 41.8722 61.7141 41.3776 61.3427 40.7283C61.2654 40.6175 61.21 40.5062 61.1704 40.4013ZM124.674 35.1306C125.362 34.6299 126.238 34.8177 126.739 35.381C127.302 36.0695 127.177 37.0084 126.426 37.5717C123.86 39.5746 120.417 40.8264 116.787 40.8264C108.025 40.8264 101.014 34.0666 101.014 25.4291C101.014 16.9168 108.025 10.157 116.787 10.157C120.417 10.157 123.86 11.4088 126.551 13.5369C127.177 13.975 127.302 14.9139 126.739 15.6024C126.238 16.1657 125.362 16.3535 124.674 15.8528C122.483 14.1002 119.729 13.0988 116.787 13.0988C109.652 13.0988 104.019 18.6693 104.019 25.4291C104.019 32.3141 109.652 37.822 116.787 37.822C119.729 37.822 122.483 36.8206 124.674 35.1306ZM127.335 12.4939C124.421 10.1992 120.705 8.85306 116.787 8.85306C107.346 8.85306 99.7104 16.1558 99.7104 25.4291C99.7104 34.8208 107.339 42.1304 116.787 42.1304C120.705 42.1304 124.426 40.7837 127.22 38.6063C128.518 37.624 128.807 35.8494 127.748 34.5553L127.731 34.5346L127.714 34.5147C126.831 33.522 125.212 33.1266 123.907 34.0761L123.892 34.0869L123.877 34.0982C121.907 35.6183 119.431 36.5181 116.787 36.5181C110.338 36.5181 105.323 31.5602 105.323 25.4291C105.323 19.4232 110.338 14.4027 116.787 14.4027C119.429 14.4027 121.897 15.3012 123.859 16.871L123.882 16.8897L123.907 16.9073C125.212 17.8568 126.831 17.4614 127.714 16.4687L127.731 16.4488L127.748 16.4281C128.728 15.2304 128.617 13.4231 127.335 12.4939ZM42.9266 40.8264C42.1129 40.8264 41.4244 40.1379 41.4244 39.3242V25.9298C41.4244 25.0536 42.1129 24.4277 42.9266 24.4277C43.8028 24.4277 44.4913 25.0536 44.4913 25.9298V39.3242C44.4913 40.1379 43.8028 40.8264 42.9266 40.8264Z" fill="white"/>
<path d="M41.2139 4.08057H44.6798V18.715H41.2139V4.08057Z" fill="#DCF859"/>
<path d="M48.4171 6.23833L50.15 9.23993L37.4762 16.5572L35.7432 13.5556L48.4171 6.23833Z" fill="#DCF859"/>
<path d="M35.7431 9.24002L37.4761 6.23841L50.1499 13.5556L48.4169 16.5572L35.7431 9.24002Z" fill="#DCF859"/>
</svg>
