<svg width="24" height="24" viewBox="0 0 24 24" fill="none" xmlns="http://www.w3.org/2000/svg">
<path d="M17.2498 15.0002C16.6884 15.003 16.1348 15.1318 15.6298 15.3771C15.1249 15.6225 14.6815 15.9781 14.3323 16.4177L8.84977 12.9902C9.04958 12.3453 9.04958 11.655 8.84977 11.0102L14.3323 7.58265C14.8887 8.27169 15.6711 8.74154 16.5408 8.90896C17.4105 9.07638 18.3114 8.93058 19.0839 8.49737C19.8564 8.06417 20.4506 7.37152 20.7614 6.54214C21.0721 5.71276 21.0792 4.80017 20.7815 3.96603C20.4838 3.13189 19.9004 2.43005 19.1348 1.98483C18.3692 1.5396 17.4707 1.37974 16.5984 1.53356C15.7262 1.68737 14.9366 2.14493 14.3694 2.82519C13.8023 3.50545 13.4942 4.3645 13.4998 5.25015C13.5033 5.58554 13.5538 5.91877 13.6498 6.24015L8.16727 9.66765C7.68326 9.05834 7.02168 8.61469 6.27424 8.3982C5.5268 8.18171 4.73052 8.2031 3.99578 8.45941C3.26104 8.71572 2.62424 9.19426 2.17364 9.82868C1.72304 10.4631 1.48096 11.222 1.48096 12.0002C1.48096 12.7783 1.72304 13.5372 2.17364 14.1716C2.62424 14.8061 3.26104 15.2846 3.99578 15.5409C4.73052 15.7972 5.5268 15.8186 6.27424 15.6021C7.02168 15.3856 7.68326 14.942 8.16727 14.3327L13.6498 17.7602C13.5538 18.0815 13.5033 18.4148 13.4998 18.7502C13.4998 19.4918 13.7197 20.2169 14.1318 20.8335C14.5438 21.4502 15.1295 21.9309 15.8147 22.2147C16.4999 22.4985 17.2539 22.5728 17.9814 22.4281C18.7088 22.2834 19.377 21.9263 19.9014 21.4018C20.4259 20.8774 20.783 20.2092 20.9277 19.4817C21.0724 18.7543 20.9981 18.0003 20.7143 17.3151C20.4305 16.6299 19.9498 16.0442 19.3332 15.6321C18.7165 15.2201 17.9915 15.0002 17.2498 15.0002ZM17.2498 3.00015C17.6948 3.00015 18.1298 3.13211 18.4998 3.37935C18.8698 3.62658 19.1582 3.97798 19.3285 4.38912C19.4988 4.80025 19.5434 5.25265 19.4565 5.68911C19.3697 6.12556 19.1554 6.52648 18.8408 6.84114C18.5261 7.15581 18.1252 7.3701 17.6887 7.45692C17.2523 7.54374 16.7999 7.49918 16.3887 7.32888C15.9776 7.15859 15.6262 6.8702 15.379 6.50019C15.1317 6.13018 14.9998 5.69516 14.9998 5.25015C14.9998 4.65342 15.2368 4.08112 15.6588 3.65916C16.0807 3.23721 16.653 3.00015 17.2498 3.00015ZM5.24977 14.2502C4.80476 14.2502 4.36975 14.1182 3.99974 13.871C3.62973 13.6237 3.34134 13.2723 3.17104 12.8612C3.00075 12.4501 2.95619 11.9977 3.04301 11.5612C3.12982 11.1247 3.34411 10.7238 3.65878 10.4092C3.97345 10.0945 4.37436 9.8802 4.81082 9.79339C5.24728 9.70657 5.69968 9.75113 6.11081 9.92142C6.52194 10.0917 6.87335 10.3801 7.12058 10.7501C7.36781 11.1201 7.49977 11.5551 7.49977 12.0002C7.49977 12.5969 7.26272 13.1692 6.84076 13.5911C6.41881 14.0131 5.84651 14.2502 5.24977 14.2502ZM17.2498 21.0002C16.8048 21.0002 16.3698 20.8682 15.9997 20.621C15.6297 20.3737 15.3413 20.0223 15.171 19.6112C15.0007 19.2001 14.9562 18.7477 15.043 18.3112C15.1298 17.8747 15.3441 17.4738 15.6588 17.1592C15.9734 16.8445 16.3744 16.6302 16.8108 16.5434C17.2473 16.4566 17.6997 16.5011 18.1108 16.6714C18.5219 16.8417 18.8733 17.1301 19.1206 17.5001C19.3678 17.8701 19.4998 18.3051 19.4998 18.7502C19.4998 19.3469 19.2627 19.9192 18.8408 20.3411C18.4188 20.7631 17.8465 21.0002 17.2498 21.0002Z" fill="white"/>
</svg>
