<svg width="26" height="28" viewBox="0 0 26 28" fill="none" xmlns="http://www.w3.org/2000/svg">
<path d="M18 11.1523C18 9.56104 17.3679 8.03492 16.2426 6.9097C15.1174 5.78448 13.5913 5.15234 12 5.15234C10.4087 5.15234 8.88258 5.78448 7.75736 6.9097C6.63214 8.03492 6 9.56104 6 11.1523C6 18.1523 3 20.1523 3 20.1523H21C21 20.1523 18 18.1523 18 11.1523Z" stroke="white" stroke-width="2" stroke-linecap="round" stroke-linejoin="round"/>
<path d="M13.73 24.1523C13.5542 24.4554 13.3019 24.707 12.9982 24.8819C12.6946 25.0568 12.3504 25.1488 12 25.1488C11.6496 25.1488 11.3054 25.0568 11.0018 24.8819C10.6982 24.707 10.4458 24.4554 10.27 24.1523" stroke="white" stroke-width="2" stroke-linecap="round" stroke-linejoin="round"/>
<ellipse cx="23" cy="3.10714" rx="3" ry="3.00655" fill="#DAFF2C"/>
</svg>
