<svg width="24" height="25" viewBox="0 0 24 25" fill="none" xmlns="http://www.w3.org/2000/svg">
<path d="M18 8.6748C18 7.08351 17.3679 5.55738 16.2426 4.43216C15.1174 3.30695 13.5913 2.6748 12 2.6748C10.4087 2.6748 8.88258 3.30695 7.75736 4.43216C6.63214 5.55738 6 7.08351 6 8.6748C6 15.6748 3 17.6748 3 17.6748H21C21 17.6748 18 15.6748 18 8.6748Z" stroke="white" stroke-width="2" stroke-linecap="round" stroke-linejoin="round"/>
<path d="M13.73 21.6748C13.5542 21.9779 13.3019 22.2295 12.9982 22.4043C12.6946 22.5792 12.3504 22.6713 12 22.6713C11.6496 22.6713 11.3054 22.5792 11.0018 22.4043C10.6982 22.2295 10.4458 21.9779 10.27 21.6748" stroke="white" stroke-width="2" stroke-linecap="round" stroke-linejoin="round"/>
</svg>
