<svg width="36" height="36" viewBox="0 0 36 36" fill="none" xmlns="http://www.w3.org/2000/svg">
<path d="M26.5105 9.94028C26.2172 9.43213 25.7854 9.01789 25.2655 8.74588C24.7457 8.47387 24.1591 8.35531 23.5744 8.40403C22.9897 8.45276 22.4309 8.66676 21.9632 9.02106C21.4956 9.37536 21.1383 9.85536 20.9331 10.405L18.47 6.13862C18.1764 5.62975 17.7439 5.21502 17.2232 4.94299C16.7025 4.67095 16.115 4.55285 15.5296 4.60251C14.9442 4.65217 14.3851 4.86753 13.9176 5.22339C13.4502 5.57926 13.0937 6.0609 12.89 6.61196C12.4799 5.96348 11.8431 5.4908 11.1037 5.28592C10.3642 5.08104 9.57503 5.15863 8.88964 5.50357C8.20424 5.84851 7.67172 6.43613 7.3957 7.15207C7.11968 7.868 7.11992 8.66103 7.39637 9.37679C6.86314 9.39559 6.34385 9.55211 5.88905 9.83112C5.43425 10.1101 5.05943 10.5021 4.80107 10.969C4.54271 11.4358 4.40961 11.9616 4.41472 12.4951C4.41984 13.0287 4.56299 13.5518 4.83025 14.0136L5.6058 15.3572C5.02716 15.26 4.43282 15.3294 3.89213 15.5572C3.35145 15.7851 2.88671 16.162 2.55216 16.644C2.2176 17.126 2.02702 17.6932 2.00267 18.2795C1.97831 18.8657 2.12118 19.4468 2.41459 19.9549L7.61772 28.967C8.63459 30.7311 10.1346 32.1678 11.9409 33.1077C13.7473 34.0475 15.7846 34.4514 17.8129 34.2718C19.8412 34.0921 21.7758 33.3363 23.3888 32.0936C25.0018 30.8508 26.2259 29.1728 26.9168 27.2574C28.6831 25.6054 29.84 23.4056 30.2001 21.0141C30.5602 18.6227 30.1025 16.1797 28.901 14.0808L26.5105 9.94028ZM14.8063 5.98042C15.2587 5.72012 15.7959 5.64981 16.3 5.78491C16.8042 5.92001 17.2342 6.24949 17.4958 6.70112L20.8996 12.5968C20.2971 12.6275 19.7167 12.8339 19.2301 13.1905C18.7435 13.5471 18.3719 14.0383 18.1611 14.6035L15.6979 10.3373C15.3805 9.7872 14.9006 9.34894 14.324 9.08274L14.0862 8.67071L14.0858 8.66987C13.8253 8.21753 13.7549 7.68035 13.89 7.17616C14.0251 6.67197 14.3546 6.24195 14.8063 5.98042ZM8.37976 7.75862C8.48054 7.38248 8.69059 7.04468 8.98335 6.78793C9.27612 6.53118 9.63845 6.36701 10.0245 6.31619C10.4106 6.26538 10.8031 6.33019 11.1523 6.50243C11.5015 6.67468 11.7918 6.94662 11.9865 7.28387L12.8604 8.79742C12.256 8.82647 11.6735 9.03304 11.1859 9.39131C10.6983 9.74957 10.3271 10.2436 10.1187 10.8117C9.80334 10.3122 9.35058 9.91413 8.81472 9.66535L8.57636 9.25262C8.44645 9.02896 8.3622 8.78174 8.32847 8.5253C8.29475 8.26885 8.31223 8.00826 8.3799 7.75862H8.37976ZM21.6548 31.9046C19.4577 33.1697 16.8485 33.5116 14.3997 32.8555C11.9508 32.1993 9.86218 30.5986 8.59197 28.4045L3.38884 19.3924C3.12777 18.9402 3.05703 18.4028 3.19219 17.8984C3.32735 17.394 3.65733 16.964 4.10954 16.7029C4.56176 16.4419 5.09916 16.3711 5.60353 16.5063C6.1079 16.6414 6.53793 16.9714 6.799 17.4236L10.174 23.2694C10.2103 23.3346 10.2592 23.392 10.3178 23.4381C10.3765 23.4843 10.4437 23.5183 10.5157 23.5382C10.5876 23.5581 10.6628 23.5635 10.7368 23.554C10.8108 23.5446 10.8822 23.5205 10.9469 23.4831C11.0115 23.4458 11.0681 23.396 11.1133 23.3366C11.1584 23.2772 11.1914 23.2094 11.2101 23.1372C11.2288 23.0649 11.233 22.9897 11.2223 22.9158C11.2117 22.8419 11.1865 22.7709 11.1481 22.7069L5.80436 13.4511C5.67509 13.2272 5.59119 12.98 5.55745 12.7237C5.5237 12.4673 5.54078 12.2069 5.60771 11.9571C5.67463 11.7074 5.79009 11.4733 5.94749 11.2682C6.10489 11.063 6.30115 10.8909 6.52506 10.7617C6.74897 10.6324 6.99616 10.5485 7.2525 10.5148C7.50884 10.481 7.76931 10.4981 8.01905 10.565C8.26879 10.6319 8.5029 10.7474 8.70802 10.9048C8.91314 11.0622 9.08524 11.2585 9.21451 11.4824L14.5583 20.7382C14.6341 20.8648 14.7567 20.9565 14.8996 20.9936C15.0425 21.0306 15.1942 21.01 15.3221 20.9362C15.4499 20.8624 15.5436 20.7413 15.5829 20.599C15.6223 20.4567 15.6041 20.3047 15.5324 20.1757L11.3136 12.8685C11.0526 12.4163 10.9818 11.8789 11.117 11.3745C11.2521 10.8702 11.5821 10.4401 12.0343 10.1791C12.4865 9.91798 13.0239 9.84725 13.5283 9.9824C14.0327 10.1176 14.4627 10.4475 14.7238 10.8998L20.63 21.1297C20.7059 21.2563 20.8285 21.348 20.9714 21.3851C21.1143 21.4221 21.266 21.4015 21.3938 21.3277C21.5217 21.2539 21.6154 21.1328 21.6547 20.9905C21.694 20.8482 21.6759 20.6962 21.6041 20.5672L19.3541 16.67C19.1595 16.3328 19.0692 15.9455 19.0947 15.5569C19.1202 15.1684 19.2603 14.7962 19.4973 14.4873C19.7344 14.1784 20.0577 13.9467 20.4264 13.8215C20.7951 13.6964 21.1926 13.6834 21.5687 13.7841C21.6322 13.801 21.6943 13.8209 21.755 13.8439L21.758 13.8452C22.1826 14.005 22.5383 14.3077 22.7642 14.7013L25.1548 18.842C26.4199 21.039 26.7619 23.6482 26.1057 26.097C25.4495 28.5459 23.8488 30.6345 21.6546 31.9046H21.6548ZM27.4785 24.9081C27.7624 22.6106 27.2886 20.2832 26.129 18.2795L23.7384 14.1388C23.4213 13.5878 22.9409 13.1488 22.3637 12.8826L22.1263 12.4715C21.8652 12.0193 21.7945 11.4819 21.9296 10.9776C22.0648 10.4732 22.3947 10.0432 22.8469 9.78214C23.2991 9.52107 23.8365 9.45033 24.3409 9.58547C24.8452 9.72062 25.2752 10.0506 25.5363 10.5028L27.9269 14.6435C28.8297 16.222 29.2668 18.024 29.1874 19.8407C29.108 21.6574 28.5155 23.4144 27.4785 24.9081ZM23.7435 3.61257L24.3258 1.43935C24.3442 1.36725 24.3768 1.29953 24.4216 1.2401C24.4663 1.18066 24.5225 1.13071 24.5867 1.09312C24.6509 1.05554 24.722 1.03107 24.7957 1.02114C24.8695 1.01121 24.9445 1.01602 25.0163 1.03527C25.0882 1.05453 25.1556 1.08786 25.2145 1.13333C25.2734 1.1788 25.3227 1.2355 25.3595 1.30016C25.3964 1.36482 25.42 1.43614 25.4291 1.51001C25.4382 1.58387 25.4325 1.65879 25.4124 1.73045L24.8299 3.90381C24.812 3.97641 24.7797 4.0447 24.7351 4.10469C24.6904 4.16467 24.6342 4.21515 24.5698 4.25317C24.5054 4.29119 24.4341 4.31599 24.36 4.32611C24.2859 4.33623 24.2105 4.33148 24.1383 4.31212C24.0661 4.29277 23.9984 4.2592 23.9393 4.21339C23.8802 4.16758 23.8308 4.11044 23.794 4.04532C23.7573 3.98019 23.7339 3.90839 23.7252 3.83411C23.7165 3.75983 23.7227 3.68456 23.7435 3.61271V3.61257ZM27.367 5.08689L28.6576 3.24371C28.6996 3.18227 28.7533 3.12977 28.8157 3.08924C28.8782 3.04872 28.948 3.02098 29.0212 3.00763C29.0944 2.99429 29.1695 2.9956 29.2422 3.01149C29.3149 3.02739 29.3837 3.05755 29.4447 3.10023C29.5056 3.1429 29.5575 3.19725 29.5973 3.26012C29.6371 3.323 29.6641 3.39314 29.6766 3.46649C29.6891 3.53985 29.6869 3.61495 29.6702 3.68746C29.6535 3.75997 29.6225 3.82844 29.5791 3.8889L28.2885 5.73207C28.2022 5.85238 28.0719 5.93381 27.9259 5.95869C27.78 5.98357 27.6301 5.94989 27.5088 5.86497C27.3875 5.78005 27.3046 5.65073 27.278 5.50507C27.2515 5.35941 27.2834 5.20914 27.367 5.08689ZM32.7563 7.34237L30.9131 8.63303C30.7908 8.71655 30.6406 8.7485 30.4949 8.72194C30.3492 8.69539 30.2199 8.61247 30.135 8.49118C30.0501 8.36988 30.0164 8.22 30.0413 8.07404C30.0662 7.92808 30.1476 7.79782 30.2679 7.71151L32.1111 6.42085C32.1715 6.37748 32.24 6.34653 32.3125 6.3298C32.385 6.31308 32.4601 6.3109 32.5335 6.3234C32.6068 6.33591 32.677 6.36284 32.7399 6.40265C32.8027 6.44245 32.8571 6.49433 32.8998 6.55529C32.9424 6.61625 32.9726 6.68507 32.9885 6.75776C33.0044 6.83046 33.0057 6.90558 32.9923 6.97879C32.979 7.05199 32.9513 7.12183 32.9107 7.18424C32.8702 7.24665 32.8177 7.30039 32.7563 7.34237Z" fill="white"/>
</svg>
