<svg width="57" height="59" viewBox="0 0 57 59" fill="none" xmlns="http://www.w3.org/2000/svg">
<g filter="url(#filter0_d_103_2814)">
<path fill-rule="evenodd" clip-rule="evenodd" d="M28.8931 7.35152C29.6395 7.35152 30.2446 6.74643 30.2446 6.00001C30.2446 6.00001 30.2446 6 30.2446 6H32.407V44.3827L30.2446 44.3827C30.2446 43.6363 29.6395 43.0312 28.8931 43.0312C28.1467 43.0312 27.5416 43.6363 27.5416 44.3827L25.1089 44.3827V6H27.5416C27.5416 6 27.5416 6.00001 27.5416 6.00001C27.5416 6.74643 28.1467 7.35152 28.8931 7.35152Z" fill="#DCF859"/>
</g>
<g filter="url(#filter1_d_103_2814)">
<path fill-rule="evenodd" clip-rule="evenodd" d="M43.9619 16.3212C44.3351 16.9676 45.1617 17.1891 45.8081 16.8159C45.8081 16.8159 45.8081 16.8159 45.8081 16.8158L46.8893 18.6885L13.6489 37.8799L12.5677 36.0072C13.2141 35.634 13.4356 34.8074 13.0624 34.161C12.6892 33.5146 11.8626 33.2931 11.2162 33.6663L9.99984 31.5595L43.2402 12.3682L44.4566 14.475C44.4566 14.475 44.4566 14.475 44.4566 14.475C43.8102 14.8482 43.5887 15.6748 43.9619 16.3212Z" fill="#DCF859"/>
</g>
<g filter="url(#filter2_d_103_2814)">
<path fill-rule="evenodd" clip-rule="evenodd" d="M11.3267 16.5567L10.1104 18.6636L43.3507 37.8549L44.5671 35.7481L44.567 35.748C43.9206 35.3748 43.6991 34.5483 44.0723 33.9018C44.4455 33.2554 45.2721 33.034 45.9185 33.4072L45.9186 33.4072L46.9998 31.5346L13.7594 12.3432L12.6782 14.2159C13.3246 14.5891 13.546 15.4156 13.1728 16.062C12.7996 16.7084 11.9731 16.9299 11.3267 16.5567Z" fill="#DCF859"/>
</g>
<defs>
<filter id="filter0_d_103_2814" x="15.1089" y="0" width="27.2983" height="58.3828" filterUnits="userSpaceOnUse" color-interpolation-filters="sRGB">
<feFlood flood-opacity="0" result="BackgroundImageFix"/>
<feColorMatrix in="SourceAlpha" type="matrix" values="0 0 0 0 0 0 0 0 0 0 0 0 0 0 0 0 0 0 127 0" result="hardAlpha"/>
<feOffset dy="4"/>
<feGaussianBlur stdDeviation="5"/>
<feComposite in2="hardAlpha" operator="out"/>
<feColorMatrix type="matrix" values="0 0 0 0 0 0 0 0 0 0 0 0 0 0 0 0 0 0 0.25 0"/>
<feBlend mode="normal" in2="BackgroundImageFix" result="effect1_dropShadow_103_2814"/>
<feBlend mode="normal" in="SourceGraphic" in2="effect1_dropShadow_103_2814" result="shape"/>
</filter>
<filter id="filter1_d_103_2814" x="0" y="6.36816" width="56.8892" height="45.5117" filterUnits="userSpaceOnUse" color-interpolation-filters="sRGB">
<feFlood flood-opacity="0" result="BackgroundImageFix"/>
<feColorMatrix in="SourceAlpha" type="matrix" values="0 0 0 0 0 0 0 0 0 0 0 0 0 0 0 0 0 0 127 0" result="hardAlpha"/>
<feOffset dy="4"/>
<feGaussianBlur stdDeviation="5"/>
<feComposite in2="hardAlpha" operator="out"/>
<feColorMatrix type="matrix" values="0 0 0 0 0 0 0 0 0 0 0 0 0 0 0 0 0 0 0.25 0"/>
<feBlend mode="normal" in2="BackgroundImageFix" result="effect1_dropShadow_103_2814"/>
<feBlend mode="normal" in="SourceGraphic" in2="effect1_dropShadow_103_2814" result="shape"/>
</filter>
<filter id="filter2_d_103_2814" x="0.110352" y="6.34326" width="56.8896" height="45.5117" filterUnits="userSpaceOnUse" color-interpolation-filters="sRGB">
<feFlood flood-opacity="0" result="BackgroundImageFix"/>
<feColorMatrix in="SourceAlpha" type="matrix" values="0 0 0 0 0 0 0 0 0 0 0 0 0 0 0 0 0 0 127 0" result="hardAlpha"/>
<feOffset dy="4"/>
<feGaussianBlur stdDeviation="5"/>
<feComposite in2="hardAlpha" operator="out"/>
<feColorMatrix type="matrix" values="0 0 0 0 0 0 0 0 0 0 0 0 0 0 0 0 0 0 0.25 0"/>
<feBlend mode="normal" in2="BackgroundImageFix" result="effect1_dropShadow_103_2814"/>
<feBlend mode="normal" in="SourceGraphic" in2="effect1_dropShadow_103_2814" result="shape"/>
</filter>
</defs>
</svg>
