<svg width="16" height="16" viewBox="0 0 16 16" fill="none" xmlns="http://www.w3.org/2000/svg">
<path d="M13 6.90909C13 10.7273 8 14 8 14C8 14 3 10.7273 3 6.90909C3 5.60712 3.52678 4.35847 4.46447 3.43784C5.40215 2.51721 6.67392 2 8 2C9.32608 2 10.5979 2.51721 11.5355 3.43784C12.4732 4.35847 13 5.60712 13 6.90909Z" fill="#7E7E7E"/>
<path d="M8 9.25C9.24264 9.25 10.25 8.24264 10.25 7C10.25 5.75736 9.24264 4.75 8 4.75C6.75736 4.75 5.75 5.75736 5.75 7C5.75 8.24264 6.75736 9.25 8 9.25Z" fill="#141414" stroke="#141414" stroke-width="0.5" stroke-linecap="round" stroke-linejoin="round"/>
</svg>
